Thor (2011) BRRip x264 [Dual Audio - Hindi+Englishi] {500MB} [UJ.rip]
Code:
IMDB   :   http://www.imdb.com/title/tt0800369/


::Plot Summary::

Thor is a 2011 American superhero film based on the comic book character of the same name published by Marvel Comics. It is the fourth film released as part of the Marvel Cinematic Universe. The film was directed by Kenneth Branagh, written by Ashley Edward Miller, Zack Stentz and Don Payne, and stars Chris Hemsworth, Natalie Portman, Tom Hiddleston, Stellan Skarsgård, Colm Feore, Ray Stevenson, Idris Elba, Kat Dennings, Rene Russo and Anthony Hopkins. The film tells the story of Thor, the crown prince of Asgard, who is exiled from his homeland to Earth. While there, he forms a relationship with Jane Foster, a scientist. However, Thor must stop his adopted brother Loki, who intends to become the new king of Asgard.

Sam Raimi first developed the concept of a film adaptation of Thor in 2001, but soon abandoned the project, leaving it in "development hell" for several years. During this time, the rights were picked up by various film studios until Marvel Studios signed Mark Protosevich to develop the project in 2006, and planned to finance it and release it through Paramount Pictures. Matthew Vaughn was originally assigned to direct the film for a tentative 2010 release. However, after Vaughn was released from his holding deal in 2008, Branagh was approached and the film's release was rescheduled into 2011. The main characters were cast in 2009, and principal photography took place in California and New Mexico from January to May 2010. The film was converted to 3D in post-production.

Thor was released on April 21, 2011, in Australia, and on May 6, 2011, in the United States. The film was a financial success and received positive reviews from film critics. The DVD and Blu-ray sets were released on September 13, 2011. A sequel, Thor: The Dark World, is set for release November 8, 2013.

Storyline

The powerful but arrogant warrior Thor is cast out of the fantastic realm of Asgard and sent to live amongst humans on Earth, where he soon becomes one of their finest defenders.
::Release::
Release (India) - 29 April 2011 (India)
Director: Kenneth Branagh, Joss Whedon
Writers: Ashley Miller (screenplay), Zack Stentz (screenplay)
Stars: Chris Hemsworth, Anthony Hopkins and Natalie Portman

===========================================================
Genre: Action | Adventure | Comedy
Genre: Action | Adventure | Fantasy
Format : MPEG-4
Format profile : Base Media
Codec ID : isom
File size : 519 MiB
Duration : 1h 54mn
Overall bit rate : 632 Kbps
Resolution : 720 x 304 pixels
Language	 : Hindi/English
Sample : Included
Cover : Yes / Yes
Encoded Date : 29-12-2012
Encoded By : Utpal & Jayant


":VIDEO":

ID : 1
Format : AVC
Format/Info : Advanced Video Codec
Format profile : Main@L3.1
Format settings, CABAC : Yes
Format settings, ReFrames : 16 frames
Codec ID : avc1
Codec ID/Info : Advanced Video Coding
Duration : 1h 54mn
Width : 720 pixels
Height : 304 pixels





Audio
Audio #1
ID : 2
Format : AAC
Format/Info : Advanced Audio Codec
Format profile : LC
Codec ID : 40
Duration : 1h 54mn
Bit rate mode : Constant
Bit rate : 128 Kbps
Channel(s) : 2 channels
Channel positions : Front: L R
Sampling rate : 48.0 KHz
Compression mode : Lossy
Stream size : 105 MiB (20%)

Audio #2
ID : 3
Format : AAC
Format/Info : Advanced Audio Codec
Format profile : LC
Codec ID : 40
Duration : 1h 54mn
Bit rate mode : Constant
Bit rate : 128 Kbps
Channel(s) : 2 channels
Channel positions : Front: L R
Sampling rate : 48.0 KHz
Compression mode : Lossy
Stream size : 105 MiB (20%)

Cover:    
http://imageshack.us/a/img11/9391/thorcoverp.jpg 
http://imageshack.us/a/img836/5730/thorcd.jpg


Screens::                            
http://imageshack.us/a/img18/3000/samplethor2011.jpg

Uploader:                                
http://img402.imageshack.us/img402/4747/uploadera.jpg

                                
http://thepiratebay.se/user/AshUtpal